<svg width="18" height="19" viewBox="0 0 18 19" fill="none" xmlns="http://www.w3.org/2000/svg">
<path d="M10.8594 17.7266C10.7031 17.8047 10.5078 17.8906 10.2734 17.9844C10.0547 18.0781 9.82031 18.1719 9.57031 18.2656C9.32031 18.3438 9.07031 18.4219 8.82031 18.5C8.58594 18.5625 8.38281 18.6094 8.21094 18.6406L7.46094 17.9375V11.4922H0.992188L0.242188 10.7656C0.289062 10.5938 0.351562 10.3906 0.429688 10.1562C0.523438 9.92188 0.625 9.67969 0.734375 9.42969C0.84375 9.17969 0.945312 8.94531 1.03906 8.72656C1.14844 8.49219 1.24219 8.29688 1.32031 8.14062H7.46094V1.85938L8.02344 1.67188C8.25781 1.59375 8.5 1.51562 8.75 1.4375C9 1.34375 9.24219 1.25781 9.47656 1.17969C9.72656 1.10156 9.9375 1.03906 10.1094 0.992188L10.8594 1.71875V8.14062H17.2109L17.9844 8.86719C17.9375 9.03906 17.8672 9.25 17.7734 9.5C17.6797 9.73438 17.5781 9.98438 17.4688 10.25C17.3594 10.5 17.25 10.7422 17.1406 10.9766C17.0469 11.1953 16.9688 11.3672 16.9062 11.4922H10.8594V17.7266Z" fill="#2B2523"/>
</svg>
