<svg width="20" height="22" viewBox="0 0 20 22" fill="none" xmlns="http://www.w3.org/2000/svg">
<path d="M1.81772 8.2489C1.85836 7.74256 2.08822 7.27011 2.46154 6.92562C2.83485 6.58114 3.32422 6.38991 3.83219 6.39001H16.014C16.5219 6.38991 17.0113 6.58114 17.3846 6.92562C17.7579 7.27011 17.9878 7.74256 18.0284 8.2489L18.8397 18.3516C18.862 18.6296 18.8265 18.9092 18.7354 19.1728C18.6444 19.4365 18.4997 19.6784 18.3106 19.8834C18.1215 20.0884 17.8919 20.252 17.6365 20.3639C17.381 20.4758 17.1051 20.5336 16.8262 20.5337H3.01993C2.74102 20.5336 2.46515 20.4758 2.20968 20.3639C1.95421 20.252 1.72469 20.0884 1.53555 19.8834C1.34641 19.6784 1.20176 19.4365 1.11071 19.1728C1.01965 18.9092 0.984163 18.6296 1.00648 18.3516L1.81772 8.2489V8.2489Z" stroke="white" stroke-width="2" stroke-linecap="round" stroke-linejoin="round"/>
<path d="M13.964 10.0924V5.04106C13.964 3.9693 13.5382 2.94145 12.7804 2.1836C12.0225 1.42575 10.9947 1 9.9229 1C8.85114 1 7.82328 1.42575 7.06543 2.1836C6.30759 2.94145 5.88184 3.9693 5.88184 5.04106V10.0924" stroke="white" stroke-width="2" stroke-linecap="round" stroke-linejoin="round"/>
</svg>
