<svg width="31" height="31" viewBox="0 0 31 31" fill="none" xmlns="http://www.w3.org/2000/svg">
<path d="M29.76 0.671875H1.24C0.554125 0.671875 0 1.20812 0 1.87188V29.4719C0 30.1356 0.554125 30.6719 1.24 30.6719H29.76C30.4459 30.6719 31 30.1356 31 29.4719V1.87188C31 1.20812 30.4459 0.671875 29.76 0.671875ZM26.1795 9.42813H23.7034C21.762 9.42813 21.3861 10.3206 21.3861 11.6331V14.5244H26.0206L25.4161 19.0506H21.3861V30.6719H16.554V19.0544H12.5124V14.5244H16.554V11.1869C16.554 7.31313 18.9991 5.20188 22.5719 5.20188C24.2846 5.20188 25.7533 5.32563 26.1834 5.38188V9.42813H26.1795Z" fill="white"/>
</svg>
