<svg width="31" height="31" viewBox="0 0 31 31" fill="none" xmlns="http://www.w3.org/2000/svg">
<path d="M15.5 12.1C14.7701 12.1003 14.0566 12.31 13.4498 12.7026C12.843 13.0953 12.3702 13.6532 12.091 14.3059C11.8119 14.9586 11.739 15.6767 11.8815 16.3695C12.0241 17.0623 12.3757 17.6986 12.892 18.198C13.4082 18.6974 14.0659 19.0375 14.7818 19.1752C15.4978 19.3129 16.2398 19.2421 16.9142 18.9717C17.5885 18.7013 18.1649 18.2435 18.5704 17.6562C18.9759 17.0688 19.1923 16.3783 19.1923 15.6719C19.1916 14.7245 18.8023 13.8162 18.11 13.1465C17.4176 12.4767 16.4789 12.1004 15.5 12.1ZM24.1295 9.35446C23.9416 8.89364 23.6578 8.4751 23.2959 8.1248C22.9339 7.7745 22.5014 7.49992 22.0252 7.31808C20.5721 6.76295 17.1123 6.8875 15.5 6.8875C13.8877 6.8875 10.4314 6.75826 8.97408 7.31808C8.4979 7.49992 8.06541 7.7745 7.70343 8.1248C7.34146 8.4751 7.05772 8.89364 6.86982 9.35446C6.29687 10.7607 6.42489 14.1123 6.42489 15.6712C6.42489 17.2301 6.29687 20.5777 6.87259 21.9886C7.06049 22.4494 7.34423 22.868 7.7062 23.2183C8.06818 23.5686 8.50067 23.8432 8.97685 24.025C10.43 24.5801 13.8898 24.4556 15.5028 24.4556C17.1157 24.4556 20.5707 24.5848 22.028 24.025C22.5042 23.8432 22.9367 23.5686 23.2986 23.2183C23.6606 22.868 23.9444 22.4494 24.1323 21.9886C24.71 20.5824 24.5772 17.2308 24.5772 15.6719C24.5772 14.1129 24.71 10.7661 24.1323 9.35513L24.1295 9.35446ZM15.5 21.1629C14.3778 21.1629 13.2807 20.8409 12.3476 20.2375C11.4145 19.6342 10.6873 18.7766 10.2578 17.7732C9.82835 16.7699 9.71598 15.6658 9.93492 14.6006C10.1539 13.5355 10.6943 12.557 11.4878 11.7891C12.2813 11.0212 13.2924 10.4982 14.393 10.2863C15.4937 10.0744 16.6346 10.1832 17.6714 10.5988C18.7082 11.0144 19.5944 11.7182 20.2178 12.6212C20.8413 13.5242 21.1741 14.5858 21.1741 15.6719C21.175 16.3932 21.0289 17.1077 20.744 17.7743C20.4592 18.4409 20.0413 19.0465 19.5142 19.5566C18.9872 20.0667 18.3613 20.4711 17.6725 20.7468C16.9836 21.0224 16.2454 21.1638 15.5 21.1629ZM21.408 11.2321C21.146 11.2323 20.8899 11.1572 20.672 11.0165C20.4541 10.8757 20.2842 10.6756 20.1839 10.4414C20.0835 10.2072 20.0572 9.94948 20.1082 9.70081C20.1593 9.45214 20.2854 9.2237 20.4705 9.04439C20.6557 8.86507 20.8917 8.74294 21.1487 8.69343C21.4056 8.64392 21.6719 8.66926 21.914 8.76625C22.156 8.86324 22.3629 9.02752 22.5085 9.23831C22.654 9.44909 22.7317 9.69692 22.7317 9.95045C22.7324 10.1188 22.6988 10.2856 22.6328 10.4414C22.5667 10.5971 22.4695 10.7387 22.3468 10.8581C22.2241 10.9774 22.0782 11.0721 21.9176 11.1368C21.757 11.2014 21.5847 11.2347 21.4108 11.2348L21.408 11.2321ZM27.6786 0.671875H3.32143C2.44053 0.671875 1.59571 1.01052 0.972824 1.61332C0.349935 2.21611 0 3.03368 0 3.88616L0 27.4576C0 28.3101 0.349935 29.1276 0.972824 29.7304C1.59571 30.3332 2.44053 30.6719 3.32143 30.6719H27.6786C28.5595 30.6719 29.4043 30.3332 30.0272 29.7304C30.6501 29.1276 31 28.3101 31 27.4576V3.88616C31 3.03368 30.6501 2.21611 30.0272 1.61332C29.4043 1.01052 28.5595 0.671875 27.6786 0.671875ZM26.4939 20.0915C26.4047 21.8078 25.9999 23.3286 24.7052 24.5781C23.4105 25.8277 21.8405 26.2275 20.069 26.3092C18.2416 26.4089 12.7626 26.4089 10.9351 26.3092C9.16161 26.2228 7.59569 25.8304 6.29895 24.5781C5.00221 23.3259 4.59464 21.8045 4.51022 20.0915C4.40712 18.3223 4.40712 13.0194 4.51022 11.2522C4.59949 9.53594 4.99944 8.01518 6.29895 6.76562C7.59846 5.51607 9.16853 5.12098 10.9351 5.03929C12.7626 4.93951 18.2416 4.93951 20.069 5.03929C21.8425 5.12567 23.4133 5.51808 24.7052 6.77031C25.9971 8.02254 26.4095 9.54397 26.4939 11.2603C26.597 13.0228 26.597 18.321 26.4939 20.0915Z" fill="white"/>
</svg>
