<svg width="30" height="31" viewBox="0 0 30 31" fill="none" xmlns="http://www.w3.org/2000/svg">
<path fill-rule="evenodd" clip-rule="evenodd" d="M3.7099e-07 3.17824C3.7099e-07 2.51351 0.264063 1.87601 0.734097 1.40598C1.20413 0.935941 1.84163 0.671878 2.50636 0.671878H27.4909C27.8203 0.67134 28.1466 0.735782 28.4511 0.861515C28.7556 0.987247 29.0323 1.1718 29.2653 1.40461C29.4984 1.63742 29.6833 1.91391 29.8093 2.21826C29.9354 2.5226 30.0002 2.84882 30 3.17824V28.1628C30.0004 28.4923 29.9357 28.8186 29.8099 29.1231C29.684 29.4276 29.4993 29.7043 29.2664 29.9373C29.0335 30.1703 28.7569 30.3552 28.4525 30.4812C28.148 30.6073 27.8218 30.6721 27.4923 30.6719H2.50636C2.17711 30.6719 1.85108 30.607 1.5469 30.481C1.24273 30.3549 0.96637 30.1702 0.733615 29.9373C0.50086 29.7044 0.316271 29.428 0.190394 29.1237C0.0645181 28.8195 -0.000178767 28.4934 3.7099e-07 28.1641V3.17824ZM11.8745 12.1101H15.9368V14.1501C16.5232 12.9773 18.0232 11.9219 20.2773 11.9219C24.5986 11.9219 25.6227 14.2578 25.6227 18.5437V26.4828H21.2495V19.5201C21.2495 17.0791 20.6632 15.7019 19.1741 15.7019C17.1082 15.7019 16.2491 17.1869 16.2491 19.5201V26.4828H11.8745V12.1101ZM4.37455 26.296H8.74909V11.9219H4.37455V26.2946V26.296ZM9.375 7.2337C9.38325 7.60825 9.3166 7.98068 9.17896 8.32912C9.04133 8.67757 8.83548 8.99502 8.5735 9.26283C8.31152 9.53064 7.99868 9.74343 7.65335 9.8887C7.30802 10.034 6.93714 10.1088 6.5625 10.1088C6.18786 10.1088 5.81698 10.034 5.47165 9.8887C5.12632 9.74343 4.81348 9.53064 4.5515 9.26283C4.28952 8.99502 4.08367 8.67757 3.94604 8.32912C3.8084 7.98068 3.74175 7.60825 3.75 7.2337C3.76619 6.4985 4.06962 5.79887 4.5953 5.28463C5.12098 4.7704 5.82712 4.48245 6.5625 4.48245C7.29788 4.48245 8.00402 4.7704 8.5297 5.28463C9.05538 5.79887 9.35881 6.4985 9.375 7.2337Z" fill="white"/>
</svg>
