<svg width="148" height="43" viewBox="0 0 148 43" fill="none" xmlns="http://www.w3.org/2000/svg">
<path d="M30.6762 8.40785C27.9707 8.35792 25.345 9.32505 23.3183 11.118C22.6658 11.7042 22.0965 12.3767 21.6259 13.1169C20.5121 14.9491 19.9302 17.0552 19.9454 19.1993C19.9605 21.3435 20.5722 23.4411 21.7118 25.2574C22.1963 25.987 22.7781 26.6471 23.4409 27.2195C25.4408 28.9581 28.0144 29.8932 30.6639 29.8439H30.7252C33.5678 29.8309 36.2888 28.6891 38.2896 26.6699C40.2904 24.6507 41.4072 21.9194 41.3942 19.0768C41.3811 16.2342 40.2394 13.5132 38.2202 11.5124C36.201 9.51159 33.4697 8.39484 30.6271 8.40785H30.6762ZM36.8077 25.4536C35.5987 26.6508 34.0586 27.4582 32.3862 27.7714C30.7138 28.0846 28.9859 27.8894 27.4256 27.2108C25.8652 26.5323 24.5441 25.4017 23.6327 23.9649C22.7213 22.5281 22.2615 20.8511 22.3127 19.1504C22.2387 16.7854 23.0976 14.4862 24.704 12.749C25.4922 11.9578 26.4314 11.333 27.4657 10.9117C28.5 10.4904 29.6085 10.2812 30.7252 10.2964V9.95302V10.2964C35.6305 10.2964 39.1009 13.914 39.1255 19.0768C39.2005 21.4132 38.355 23.6855 36.7709 25.4046L36.8077 25.4536Z" fill="white"/>
<path d="M145.68 24.9631C145.085 24.9683 144.514 25.2008 144.086 25.613C143.882 25.8075 143.72 26.0417 143.61 26.3012C143.501 26.5606 143.445 26.8398 143.448 27.1214C143.451 27.4129 143.512 27.7009 143.626 27.969C143.741 28.237 143.907 28.4799 144.115 28.6838C144.324 28.8876 144.57 29.0484 144.841 29.157C145.111 29.2655 145.4 29.3197 145.692 29.3165C145.989 29.3165 146.283 29.2577 146.556 29.1434C146.83 29.0291 147.079 28.8616 147.288 28.6506C147.496 28.4396 147.661 28.1893 147.772 27.9142C147.884 27.6391 147.939 27.3446 147.936 27.0478C147.908 26.4742 147.655 25.9347 147.233 25.545C146.812 25.1552 146.254 24.9463 145.68 24.9631Z" fill="white"/>
<path d="M91.2438 27.06C91.1165 27.0621 90.9911 27.0914 90.8759 27.1459C90.107 27.4981 89.269 27.6741 88.4233 27.6609C85.8235 27.6609 84.3887 26.1403 84.3765 23.3688L84.3029 10.051H89.9807C90.2183 10.0496 90.4465 9.95749 90.6184 9.79349C90.7397 9.66608 90.8213 9.50617 90.8533 9.33321C90.8854 9.16026 90.8665 8.98171 90.7989 8.8193C90.7314 8.6569 90.6181 8.51761 90.4728 8.41842C90.3276 8.31922 90.1566 8.26441 89.9807 8.2606H84.3029V4.58165C84.2997 4.28456 84.1794 4.00075 83.9681 3.79181C83.7569 3.58288 83.4718 3.46568 83.1747 3.4657C82.8776 3.47582 82.5944 3.59347 82.3776 3.79679C82.1704 4.01009 82.0558 4.29659 82.0587 4.59393V8.27287H79.2382C79.0485 8.29673 78.874 8.38899 78.7475 8.53237C78.6211 8.67575 78.5513 8.86036 78.5513 9.05156C78.5513 9.24275 78.6211 9.42736 78.7475 9.57074C78.874 9.71412 79.0485 9.80643 79.2382 9.83028H82.071L82.1323 23.4546C82.1323 27.2439 84.3397 29.4145 88.1413 29.4145C89.3281 29.4264 90.4993 29.1441 91.5504 28.5929C91.7483 28.4883 91.8976 28.3105 91.9663 28.0975C92.035 27.8844 92.0178 27.653 91.9183 27.4524C91.8472 27.3362 91.7484 27.2395 91.6306 27.171C91.5129 27.1025 91.38 27.0644 91.2438 27.06Z" fill="white"/>
<path d="M78.4164 28.2495C77.766 28.2495 77.1421 27.9911 76.6822 27.5311C76.2222 27.0712 75.9638 26.4473 75.9638 25.7968V17.1391C75.9638 11.4735 72.7999 8.22375 67.3796 8.22375C63.7742 8.22375 60.9415 9.68306 59.4208 12.2706L58.7954 13.3497V9.46231V9.18028C58.7954 8.97538 58.714 8.77885 58.5691 8.63396C58.4242 8.48907 58.2277 8.40769 58.0228 8.40769H54.3439C54.1542 8.43155 53.9797 8.52381 53.8532 8.66719C53.7267 8.81058 53.6569 8.99522 53.6569 9.18642C53.6569 9.37761 53.7267 9.56222 53.8532 9.7056C53.9797 9.84898 54.1542 9.94125 54.3439 9.9651C54.9706 9.96507 55.572 10.2124 56.0175 10.6532C56.463 11.0941 56.7165 11.6929 56.7229 12.3196L56.7842 25.9072C56.7858 26.2196 56.7259 26.5293 56.6079 26.8186C56.4898 27.1079 56.3159 27.371 56.0961 27.5931C55.8763 27.8151 55.615 27.9917 55.327 28.1128C55.0389 28.2338 54.7299 28.2969 54.4175 28.2985H54.3439C54.139 28.2985 53.9425 28.3799 53.7976 28.5248C53.6527 28.6697 53.5713 28.8662 53.5713 29.0711C53.5745 29.275 53.6569 29.4697 53.8011 29.6139C53.9453 29.7581 54.14 29.8405 54.3439 29.8437H61.4074C61.6123 29.8437 61.8089 29.7623 61.9537 29.6174C62.0986 29.4725 62.18 29.276 62.18 29.0711C62.18 28.8662 62.0986 28.6697 61.9537 28.5248C61.8089 28.3799 61.6123 28.2985 61.4074 28.2985C61.0962 28.3002 60.7877 28.24 60.4998 28.1217C60.2119 28.0033 59.9503 27.8291 59.7302 27.609C59.5101 27.3889 59.3359 27.1273 59.2175 26.8394C59.0991 26.5515 59.039 26.243 59.0407 25.9318V18.4267C59.0407 13.362 62.0697 10.2104 66.9994 10.1859C71.3406 10.1859 73.83 12.8347 73.8546 17.4456V26.0298C73.8578 26.3331 73.8009 26.6339 73.6871 26.915C73.5733 27.196 73.4049 27.4517 73.1916 27.6673C72.9783 27.8828 72.7245 28.0539 72.4446 28.1707C72.1648 28.2875 71.8646 28.3476 71.5613 28.3476C71.3564 28.3476 71.1599 28.429 71.015 28.5739C70.8702 28.7188 70.7888 28.9153 70.7888 29.1202C70.7888 29.3251 70.8702 29.5216 71.015 29.6665C71.1599 29.8114 71.3564 29.8927 71.5613 29.8927H78.6127C78.8176 29.8927 79.0141 29.8114 79.159 29.6665C79.3038 29.5216 79.3852 29.3251 79.3852 29.1202C79.4065 28.9921 79.3951 28.8608 79.3521 28.7383C79.3091 28.6158 79.236 28.5061 79.1395 28.4193C79.0429 28.3325 78.9261 28.2715 78.7997 28.2418C78.6733 28.2121 78.5415 28.2148 78.4164 28.2495Z" fill="white"/>
<path d="M49.8801 9.91621C50.0698 9.89236 50.2443 9.80005 50.3708 9.65667C50.4972 9.51329 50.567 9.32868 50.567 9.13749C50.567 8.94629 50.4972 8.76168 50.3708 8.6183C50.2443 8.47492 50.0698 8.38262 49.8801 8.35876H42.8165C42.6268 8.38262 42.4523 8.47492 42.3259 8.6183C42.1994 8.76168 42.1296 8.94629 42.1296 9.13749C42.1296 9.32868 42.1994 9.51329 42.3259 9.65667C42.4523 9.80005 42.6268 9.89236 42.8165 9.91621C43.4432 9.91618 44.0447 10.1635 44.4902 10.6043C44.9356 11.0452 45.1891 11.644 45.1956 12.2707L45.2569 25.8583C45.2585 26.1718 45.1982 26.4824 45.0793 26.7725C44.9605 27.0625 44.7855 27.3263 44.5644 27.5485C44.3434 27.7707 44.0805 27.947 43.7911 28.0674C43.5017 28.1877 43.1913 28.2496 42.8778 28.2496H42.8165C42.6116 28.2496 42.4151 28.331 42.2702 28.4759C42.1253 28.6208 42.0439 28.8173 42.0439 29.0222C42.0439 29.2271 42.1253 29.4236 42.2702 29.5685C42.4151 29.7134 42.6116 29.7948 42.8165 29.7948H49.8801C50.084 29.7916 50.2787 29.7092 50.4229 29.565C50.5671 29.4208 50.6495 29.2261 50.6527 29.0222C50.6527 28.8173 50.5713 28.6208 50.4264 28.4759C50.2815 28.331 50.085 28.2496 49.8801 28.2496C49.2513 28.2496 48.648 28.0007 48.2022 27.5571C47.7564 27.1136 47.5043 26.5117 47.501 25.8828V12.2953C47.501 11.6643 47.7517 11.0592 48.1978 10.613C48.644 10.1669 49.2491 9.91621 49.8801 9.91621Z" fill="white"/>
<path d="M143.755 25.2819C144.01 25.0262 144.314 24.824 144.649 24.6872C144.984 24.5503 145.343 24.4815 145.704 24.4848C145.907 24.4844 146.109 24.5092 146.305 24.5584C147.455 22.7232 148.043 20.592 147.998 18.4268C147.985 16.3092 147.346 14.2425 146.161 12.4878C144.975 10.733 143.296 9.36883 141.336 8.56737C139.376 7.76591 137.222 7.56308 135.147 7.98453C133.071 8.40598 131.167 9.43281 129.675 10.9354C128.183 12.438 127.169 14.349 126.762 16.4272C126.355 18.5054 126.572 20.6576 127.387 22.6123C128.202 24.567 129.578 26.2364 131.34 27.41C133.103 28.5835 135.174 29.2085 137.292 29.2061C139.292 29.2161 141.258 28.6865 142.982 27.6732C142.934 27.4807 142.909 27.2831 142.908 27.0846C142.916 26.7417 142.995 26.404 143.14 26.0935C143.286 25.783 143.495 25.5065 143.755 25.2819ZM137.292 27.3299C132.387 27.3299 128.879 23.6509 128.855 18.5494C128.83 13.448 132.362 9.71998 137.255 9.69545V9.35208V9.69545C142.16 9.69545 145.631 13.3008 145.655 18.4759C145.744 20.8328 144.898 23.1293 143.301 24.865C142.515 25.6575 141.579 26.284 140.547 26.7075C139.514 27.1309 138.408 27.3426 137.292 27.3299Z" fill="white"/>
<path d="M126.954 26.1525C126.84 26.0293 126.702 25.9308 126.548 25.8633C126.394 25.7958 126.227 25.7607 126.059 25.7601C125.778 25.7582 125.504 25.8439 125.274 26.0054C124.566 26.4984 123.784 26.8751 122.957 27.1213H122.858L122.601 27.1949C121.945 27.3545 121.276 27.4571 120.602 27.5015H120.124H119.67C117.205 27.5917 114.794 26.7636 112.904 25.1776C111.015 23.5917 109.781 21.3608 109.443 18.9173C109.443 18.7333 109.381 18.5371 109.357 18.3532C109.293 17.8282 109.26 17.3 109.259 16.7712C109.205 15.3446 109.435 13.9214 109.936 12.5845C110.437 11.2476 111.199 10.0238 112.177 8.98412C114.03 7.14914 116.512 6.08807 119.118 6.01642C120.761 5.91602 122.406 6.19288 123.925 6.82579L124.44 7.09558C124.871 7.34536 125.281 7.62828 125.667 7.94174L125.912 8.15023L126.145 8.37096C126.755 5.51531 126.208 2.5344 124.624 0.0810547C124.471 0.0936143 124.32 0.118214 124.171 0.154631C123.971 0.194834 123.783 0.281577 123.622 0.407843C123.462 0.534108 123.334 0.696366 123.248 0.881446C123.162 1.06653 123.121 1.26924 123.128 1.4732C123.135 1.67715 123.189 1.87662 123.288 2.05544C123.667 2.75984 123.968 3.50429 124.183 4.27507V4.36092C124.198 4.42961 124.198 4.50069 124.183 4.56938C122.673 4.04503 121.085 3.7797 119.486 3.78455C116.119 3.88816 112.924 5.29856 110.579 7.71697C108.234 10.1354 106.923 13.3718 106.923 16.7406C106.923 20.1093 108.234 23.3457 110.579 25.7642C112.924 28.1826 116.119 29.593 119.486 29.6966H119.94C122.22 29.7 124.455 29.0626 126.39 27.8571C126.755 27.6151 127.103 27.3488 127.433 27.06C127.433 27.06 127.138 26.3488 126.954 26.1525Z" fill="white"/>
<path d="M19.9827 26.1525C19.867 26.0277 19.7265 25.9284 19.5703 25.8608C19.4141 25.7933 19.2455 25.759 19.0753 25.7601C18.7951 25.7621 18.5219 25.8475 18.2904 26.0054C17.5835 26.5006 16.8007 26.8775 15.9727 27.1213H15.8746L15.617 27.1949C14.961 27.3554 14.2921 27.458 13.6181 27.5015H13.1399H12.7597C10.2931 27.592 7.88057 26.7643 5.98902 25.1786C4.09748 23.5929 2.8614 21.3619 2.51999 18.9173C2.51999 18.7333 2.51999 18.5371 2.43414 18.3532C2.37018 17.8282 2.33742 17.3 2.33604 16.7712C2.28468 15.3449 2.51612 13.9225 3.01704 12.586C3.51797 11.2495 4.27845 10.0253 5.25466 8.98412C7.11014 7.15328 9.59007 6.09294 12.1956 6.01642C13.8388 5.91559 15.4832 6.19246 17.0028 6.82579L17.5178 7.09558C17.9497 7.34263 18.3599 7.62569 18.7441 7.94174L19.0017 8.15023L19.2347 8.37096C19.848 5.51692 19.3056 2.53614 17.7263 0.0810547C17.5732 0.0926284 17.4214 0.117241 17.2726 0.154631C17.0711 0.192381 16.8815 0.277721 16.7196 0.403502C16.5578 0.529282 16.4283 0.691897 16.3419 0.877816C16.2555 1.06373 16.2148 1.26758 16.2231 1.47241C16.2314 1.67724 16.2885 1.87712 16.3896 2.05544C16.7605 2.76252 17.0564 3.50644 17.2726 4.27507V4.36092C17.2823 4.43007 17.2823 4.50022 17.2726 4.56938C15.7581 4.04504 14.1661 3.77973 12.5635 3.78455C9.19635 3.88816 6.0018 5.29856 3.65665 7.71697C1.3115 10.1354 0 13.3718 0 16.7406C0 20.1093 1.3115 23.3457 3.65665 25.7642C6.0018 28.1826 9.19635 29.593 12.5635 29.6966H13.0172C15.3007 29.6971 17.539 29.06 19.4799 27.8571C19.8467 27.6122 20.1988 27.346 20.5346 27.06C20.5346 27.06 20.1176 26.3488 19.9827 26.1525Z" fill="white"/>
<path d="M6.83651 34.7124V35.0435C6.9952 34.8858 7.17718 34.7534 7.37609 34.6511C7.54977 34.5744 7.73813 34.5367 7.92793 34.5407C8.10779 34.5448 8.28418 34.5911 8.44299 34.6756C8.63217 34.7709 8.80251 34.8997 8.94577 35.0558C9.1364 34.8954 9.35176 34.767 9.58346 34.6756C9.79003 34.5927 10.0108 34.551 10.2334 34.553C10.6278 34.5386 11.0146 34.6646 11.3248 34.9086C11.4997 35.0605 11.6387 35.2493 11.732 35.4613C11.8253 35.6733 11.8705 35.9033 11.8644 36.1349V38.8328C12.0672 38.8183 12.2682 38.8794 12.4285 39.0045C12.4887 39.0582 12.5363 39.1245 12.5681 39.1987C12.5999 39.2728 12.615 39.353 12.6125 39.4337C12.6159 39.5144 12.6012 39.5949 12.5693 39.6692C12.5375 39.7435 12.4894 39.8097 12.4285 39.8629C12.2537 39.9966 12.0342 40.0581 11.8154 40.0346H10.6626V36.2453C10.6796 36.1068 10.6446 35.967 10.5645 35.8529C10.5225 35.817 10.4737 35.7899 10.4211 35.773C10.3684 35.7562 10.313 35.7499 10.2579 35.7547C10.1291 35.7567 10.0028 35.7905 9.89004 35.8529C9.68771 36.0095 9.50997 36.1954 9.36273 36.4047V38.8573C9.56553 38.8428 9.76651 38.904 9.92683 39.029C9.98478 39.0839 10.0301 39.1507 10.0598 39.2248C10.0894 39.2989 10.1026 39.3785 10.0985 39.4582C10.1044 39.5381 10.092 39.6183 10.0622 39.6927C10.0325 39.767 9.98617 39.8336 9.92683 39.8874C9.74824 40.0231 9.52421 40.0846 9.30141 40.0591H8.16093V36.2453C8.1727 36.1111 8.13807 35.9769 8.06282 35.8651C8.02216 35.8265 7.97391 35.7967 7.92114 35.7777C7.86836 35.7587 7.81221 35.7509 7.75625 35.7547C7.60612 35.752 7.4594 35.7995 7.3393 35.8896C7.14192 36.0295 6.97156 36.204 6.83651 36.4047V38.8573C7.03931 38.8428 7.2403 38.904 7.40061 39.029C7.46079 39.0828 7.50844 39.149 7.54022 39.2232C7.57201 39.2974 7.58714 39.3776 7.58456 39.4582C7.588 39.539 7.57326 39.6194 7.54142 39.6937C7.50958 39.768 7.46146 39.8342 7.40061 39.8874C7.22579 40.0212 7.00629 40.0826 6.78745 40.0591H5.69603C5.4772 40.0826 5.2577 40.0212 5.08288 39.8874C5.02203 39.8342 4.97391 39.768 4.94207 39.6937C4.91023 39.6194 4.89548 39.539 4.89893 39.4582C4.89637 39.3787 4.91031 39.2995 4.93986 39.2256C4.96941 39.1518 5.01393 39.0848 5.07062 39.029C5.23147 38.905 5.43206 38.8439 5.63472 38.8573V35.9387C5.43206 35.9521 5.23147 35.891 5.07062 35.767C5.01358 35.7089 4.96895 35.6398 4.93944 35.5639C4.90993 35.488 4.89614 35.4069 4.89893 35.3255C4.89635 35.2449 4.91148 35.1647 4.94327 35.0905C4.97505 35.0164 5.0227 34.9501 5.08288 34.8963C5.26193 34.7723 5.47922 34.7157 5.69603 34.7369L6.83651 34.7124Z" fill="white"/>
<path d="M17.1009 34.7122V38.8326H18.5479C18.7702 38.8132 18.9922 38.8741 19.1734 39.0043C19.2335 39.0581 19.2812 39.1243 19.313 39.1985C19.3447 39.2727 19.3599 39.3529 19.3573 39.4335C19.3607 39.5143 19.346 39.5948 19.3142 39.6691C19.2823 39.7434 19.2342 39.8095 19.1734 39.8627C18.9948 39.9984 18.7707 40.0599 18.5479 40.0344H14.4643C14.2415 40.0599 14.0175 39.9984 13.8389 39.8627C13.7802 39.8077 13.7335 39.7412 13.7015 39.6674C13.6696 39.5936 13.6531 39.514 13.6531 39.4335C13.6531 39.3531 13.6696 39.2735 13.7015 39.1997C13.7335 39.1259 13.7802 39.0594 13.8389 39.0043C14.0201 38.8741 14.242 38.8132 14.4643 38.8326H15.8991V35.914H14.9303C14.712 35.9316 14.4946 35.8708 14.3171 35.7423C14.256 35.6867 14.2079 35.6183 14.1761 35.542C14.1443 35.4658 14.1297 35.3834 14.1332 35.3008C14.1306 35.2202 14.1458 35.14 14.1775 35.0658C14.2093 34.9917 14.257 34.9254 14.3171 34.8716C14.4962 34.7476 14.7135 34.6911 14.9303 34.7122H17.1009ZM16.9415 32.4313V33.6576H15.5067V32.4313H16.9415Z" fill="white"/>
<path d="M23.1095 34.7123V35.117C23.3185 34.9257 23.5648 34.7796 23.833 34.6878C24.1101 34.5974 24.3999 34.5518 24.6914 34.5529C25.0026 34.5362 25.3137 34.5867 25.6036 34.701C25.8935 34.8153 26.1554 34.9906 26.3715 35.2151C26.7151 35.5927 26.8958 36.0907 26.8742 36.6008V38.8327C27.0769 38.8194 27.2775 38.8804 27.4383 39.0045C27.4944 39.0607 27.5386 39.1277 27.5681 39.2015C27.5976 39.2753 27.6119 39.3542 27.61 39.4336C27.6135 39.5144 27.5987 39.5949 27.5669 39.6692C27.5351 39.7435 27.4869 39.8097 27.4261 39.8628C27.2513 39.9966 27.0318 40.058 26.8129 40.0346H25.7215C25.5027 40.058 25.2832 39.9966 25.1083 39.8628C25.0497 39.8078 25.0029 39.7413 24.971 39.6675C24.939 39.5937 24.9225 39.5141 24.9225 39.4336C24.9225 39.3532 24.939 39.2736 24.971 39.1998C25.0029 39.126 25.0497 39.0595 25.1083 39.0045C25.2687 38.8794 25.4696 38.8182 25.6724 38.8327V36.6131C25.6813 36.5066 25.6661 36.3995 25.6279 36.2997C25.5896 36.1999 25.5294 36.1101 25.4517 36.0367C25.2146 35.8631 24.923 35.7805 24.6301 35.8037C24.3754 35.7954 24.1227 35.8502 23.8943 35.9632C23.5965 36.1471 23.3313 36.3792 23.1095 36.6499V38.8818C23.3097 38.8617 23.5119 38.8912 23.6981 38.9677C23.7892 39.0188 23.8647 39.0937 23.9166 39.1844C23.9684 39.2751 23.9946 39.3782 23.9924 39.4827C23.9958 39.5634 23.9811 39.644 23.9493 39.7182C23.9174 39.7925 23.8693 39.8587 23.8085 39.9119C23.6299 40.0475 23.4058 40.109 23.183 40.0836H21.8218C21.599 40.109 21.375 40.0475 21.1964 39.9119C21.1355 39.8587 21.0874 39.7925 21.0556 39.7182C21.0237 39.644 21.009 39.5634 21.0125 39.4827C21.0103 39.3797 21.0352 39.2779 21.0847 39.1875C21.1342 39.0971 21.2065 39.0213 21.2945 38.9677C21.4852 38.892 21.6911 38.8626 21.8954 38.8818V35.9632C21.6963 35.9782 21.499 35.9168 21.3436 35.7915C21.2824 35.7359 21.2343 35.6675 21.2025 35.5912C21.1707 35.5149 21.1561 35.4326 21.1596 35.35C21.157 35.2694 21.1722 35.1891 21.2039 35.115C21.2357 35.0408 21.2834 34.9745 21.3436 34.9208C21.5226 34.7967 21.7399 34.7402 21.9567 34.7614L23.1095 34.7123Z" fill="white"/>
<path d="M31.841 35.914V38.3666C31.8275 38.4589 31.8348 38.5531 31.8624 38.6422C31.89 38.7313 31.9371 38.8132 32.0005 38.8817C32.2614 39.0405 32.5673 39.1094 32.8711 39.0779C33.4621 39.0818 34.0459 38.9474 34.5757 38.6855C34.7161 38.5959 34.8759 38.5412 35.0417 38.5261C35.1202 38.526 35.1978 38.5424 35.2696 38.5741C35.3414 38.6057 35.4058 38.652 35.4587 38.71C35.5148 38.7663 35.5589 38.8333 35.5884 38.907C35.6179 38.9808 35.6322 39.0598 35.6303 39.1392C35.6287 39.2168 35.6103 39.2931 35.5764 39.363C35.5425 39.4328 35.494 39.4945 35.4341 39.5439C35.1005 39.7939 34.7149 39.9657 34.3059 40.0467C33.8404 40.1887 33.3577 40.2671 32.8711 40.2797C32.2698 40.3283 31.6717 40.1537 31.1911 39.7892C31.0105 39.6414 30.8667 39.4537 30.7709 39.2409C30.6752 39.0281 30.6301 38.796 30.6392 38.5628V35.9263H30.1978C29.9795 35.9439 29.762 35.883 29.5846 35.7546C29.5235 35.699 29.4753 35.6306 29.4435 35.5543C29.4118 35.478 29.3971 35.3957 29.4007 35.3131C29.3981 35.2325 29.4132 35.1522 29.445 35.0781C29.4768 35.0039 29.5244 34.9376 29.5846 34.8839C29.7637 34.7598 29.9809 34.7033 30.1978 34.7245H30.6392V33.6331C30.6181 33.4163 30.6746 33.199 30.7987 33.0199C30.8543 32.9588 30.9227 32.9106 30.9989 32.8788C31.0752 32.847 31.1576 32.8324 31.2401 32.836C31.3208 32.8334 31.401 32.8485 31.4751 32.8803C31.5493 32.9121 31.6156 32.9597 31.6693 33.0199C31.7977 33.1973 31.8586 33.4148 31.841 33.6331V34.7245H34.0607C34.2776 34.7011 34.4957 34.7578 34.6738 34.8839C34.7349 34.9395 34.7831 35.0079 34.8149 35.0842C34.8467 35.1605 34.8613 35.2428 34.8578 35.3254C34.8603 35.406 34.8452 35.4863 34.8134 35.5604C34.7816 35.6346 34.734 35.7008 34.6738 35.7546C34.4974 35.885 34.2792 35.9461 34.0607 35.9263L31.841 35.914Z" fill="white"/>
<path d="M40.5354 34.7122V38.8326H41.9825C42.201 38.8128 42.4192 38.8739 42.5957 39.0043C42.6595 39.0557 42.7104 39.1213 42.7445 39.1958C42.7785 39.2703 42.7948 39.3517 42.7919 39.4335C42.7957 39.5155 42.7799 39.5973 42.7458 39.672C42.7117 39.7466 42.6602 39.812 42.5957 39.8627C42.422 39.9988 42.2016 40.0606 41.9825 40.0344H37.8989C37.6761 40.0599 37.452 39.9984 37.2735 39.8627C37.2148 39.8077 37.1681 39.7412 37.1361 39.6674C37.1041 39.5936 37.0876 39.514 37.0876 39.4335C37.0876 39.3531 37.1041 39.2735 37.1361 39.1997C37.1681 39.1259 37.2148 39.0594 37.2735 39.0043C37.4547 38.8741 37.6766 38.8132 37.8989 38.8326H39.3337V35.914H38.3649C38.1466 35.9316 37.9291 35.8708 37.7517 35.7423C37.6906 35.6867 37.6424 35.6183 37.6106 35.542C37.5788 35.4658 37.5642 35.3834 37.5678 35.3008C37.5652 35.2202 37.5803 35.14 37.6121 35.0658C37.6439 34.9917 37.6915 34.9254 37.7517 34.8716C37.9308 34.7476 38.1481 34.6911 38.3649 34.7122H40.5354ZM40.376 32.4313V33.6576H38.9412V32.4313H40.376Z" fill="white"/>
<path d="M46.5322 34.7123V35.117C46.7451 34.9308 46.9903 34.7853 47.2558 34.6878C47.5372 34.5975 47.831 34.552 48.1265 34.5529C48.4376 34.5362 48.7487 34.5867 49.0386 34.701C49.3285 34.8153 49.5904 34.9906 49.8065 35.2151C50.1502 35.5927 50.3308 36.0907 50.3093 36.6008V38.8327C50.5084 38.8177 50.7057 38.8791 50.8612 39.0045C50.9213 39.0582 50.969 39.1244 51.0007 39.1986C51.0325 39.2728 51.0477 39.353 51.0451 39.4336C51.0485 39.5144 51.0338 39.5949 51.002 39.6692C50.9701 39.7435 50.922 39.8097 50.8612 39.8628C50.6863 39.9966 50.4668 40.058 50.248 40.0346H49.1566C48.9377 40.058 48.7182 39.9966 48.5434 39.8628C48.4847 39.8078 48.438 39.7413 48.4061 39.6675C48.3741 39.5937 48.3576 39.5141 48.3576 39.4336C48.3576 39.3532 48.3741 39.2736 48.4061 39.1998C48.438 39.126 48.4847 39.0595 48.5434 39.0045C48.6988 38.8791 48.8962 38.8177 49.0953 38.8327V36.6131C49.1057 36.5076 49.0924 36.4011 49.0563 36.3013C49.0202 36.2016 48.9623 36.1112 48.8868 36.0367C48.6497 35.8631 48.3581 35.7805 48.0651 35.8037C47.8105 35.7954 47.5577 35.8502 47.3294 35.9632C47.0296 36.1493 46.7607 36.381 46.5322 36.6499V38.8818C46.7366 38.8596 46.9432 38.8891 47.1331 38.9677C47.2243 39.0188 47.2998 39.0937 47.3516 39.1844C47.4035 39.2751 47.4297 39.3782 47.4275 39.4827C47.4309 39.5634 47.4162 39.644 47.3843 39.7182C47.3525 39.7925 47.3044 39.8587 47.2435 39.9119C47.0649 40.0475 46.8409 40.109 46.6181 40.0836H45.2569C45.0341 40.109 44.8101 40.0475 44.6315 39.9119C44.5706 39.8587 44.5225 39.7925 44.4907 39.7182C44.4588 39.644 44.4441 39.5634 44.4475 39.4827C44.4453 39.3797 44.4702 39.2779 44.5197 39.1875C44.5692 39.0971 44.6416 39.0213 44.7296 38.9677C44.9203 38.892 45.1262 38.8626 45.3305 38.8818V35.9632C45.1278 35.9766 44.9272 35.9155 44.7664 35.7915C44.6532 35.6748 44.59 35.5187 44.59 35.3562C44.59 35.1936 44.6532 35.0375 44.7664 34.9208C44.9454 34.7967 45.1627 34.7402 45.3795 34.7614L46.5322 34.7123Z" fill="white"/>
<path d="M56.9067 35.0678V34.7122H58.317C58.5378 34.6892 58.7596 34.7457 58.9424 34.8716C59.0035 34.9272 59.0517 34.9956 59.0835 35.0719C59.1153 35.1482 59.1299 35.2305 59.1263 35.3131C59.1289 35.3937 59.1138 35.474 59.082 35.5481C59.0502 35.6223 59.0026 35.6886 58.9424 35.7423C58.7612 35.8726 58.5393 35.9335 58.317 35.914H58.133V40.2919C58.1371 40.6766 58.0443 41.0562 57.8632 41.3956C57.6445 41.7456 57.3411 42.0347 56.981 42.2362C56.6208 42.4377 56.2157 42.545 55.803 42.5484H54.4541C54.2318 42.5678 54.0099 42.5069 53.8287 42.3767C53.7685 42.3229 53.7208 42.2567 53.6891 42.1825C53.6573 42.1083 53.6421 42.0281 53.6447 41.9475C53.6412 41.8649 53.6558 41.7826 53.6876 41.7063C53.7194 41.63 53.7675 41.5616 53.8287 41.506C54.0115 41.38 54.2333 41.3235 54.4541 41.3465H55.6804C55.8368 41.3565 55.9936 41.3344 56.1412 41.2817C56.2888 41.229 56.4241 41.1467 56.5388 41.04C56.6501 40.9488 56.7405 40.8349 56.8039 40.7059C56.8674 40.5768 56.9025 40.4357 56.9067 40.2919V39.7033C56.6571 39.8692 56.3844 39.9973 56.0973 40.0834C55.598 40.2416 55.065 40.2613 54.5553 40.1403C54.0456 40.0194 53.5783 39.7624 53.2032 39.3967C52.9318 39.1355 52.7176 38.8208 52.574 38.4725C52.4305 38.1242 52.3608 37.7499 52.3694 37.3733C52.3712 37.0014 52.4481 36.6337 52.5957 36.2923C52.7432 35.9509 52.9582 35.6429 53.2278 35.3867C53.496 35.1185 53.8157 34.9075 54.1677 34.7663C54.5196 34.6251 54.8966 34.5566 55.2757 34.565C55.5711 34.5651 55.8648 34.6106 56.1464 34.6999C56.4188 34.7788 56.6758 34.9032 56.9067 35.0678ZM56.9067 37.3733C56.9085 37.1578 56.8658 36.9442 56.7814 36.7459C56.6971 36.5476 56.5727 36.3687 56.4162 36.2206C56.2622 36.0648 56.0789 35.9412 55.8768 35.8568C55.6747 35.7725 55.4579 35.729 55.2389 35.729C55.0199 35.729 54.8031 35.7725 54.6011 35.8568C54.399 35.9412 54.2156 36.0648 54.0617 36.2206C53.9074 36.3705 53.7846 36.5496 53.7004 36.7476C53.6161 36.9455 53.5722 37.1582 53.5711 37.3733C53.5708 37.5886 53.6141 37.8018 53.6984 37.9999C53.7827 38.198 53.9063 38.377 54.0617 38.526C54.3773 38.8317 54.7995 39.0026 55.2389 39.0026C55.6783 39.0026 56.1005 38.8317 56.4162 38.526C56.5739 38.3788 56.699 38.2002 56.7835 38.0016C56.868 37.8031 56.91 37.589 56.9067 37.3733Z" fill="white"/>
<path d="M70.8869 35.914V38.3666C70.8766 38.4588 70.8855 38.5522 70.9129 38.6408C70.9404 38.7294 70.9858 38.8114 71.0463 38.8817C71.3128 39.0382 71.6217 39.1068 71.9293 39.0779C72.5202 39.0805 73.1036 38.9462 73.6339 38.6855C73.7742 38.5959 73.934 38.5412 74.0999 38.5261C74.1767 38.5254 74.2527 38.5416 74.3226 38.5733C74.3925 38.6051 74.4546 38.6517 74.5046 38.71C74.5625 38.7649 74.6079 38.8317 74.6375 38.9058C74.6672 38.9799 74.6804 39.0595 74.6763 39.1392C74.6746 39.2156 74.6574 39.2909 74.6258 39.3604C74.5942 39.43 74.5488 39.4924 74.4923 39.5439C74.1586 39.7939 73.7731 39.9657 73.3641 40.0467C72.8983 40.1878 72.4158 40.2662 71.9293 40.2797C71.328 40.3283 70.7299 40.1537 70.2493 39.7892C70.0672 39.642 69.9215 39.4547 69.8237 39.242C69.7258 39.0293 69.6784 38.7969 69.6851 38.5628V35.9263H69.2559C69.0336 35.9458 68.8117 35.8848 68.6305 35.7546C68.5694 35.699 68.5212 35.6306 68.4894 35.5543C68.4576 35.478 68.443 35.3957 68.4466 35.3131C68.444 35.2325 68.4591 35.1522 68.4909 35.0781C68.5227 35.0039 68.5703 34.9376 68.6305 34.8839C68.8133 34.758 69.0351 34.7014 69.2559 34.7245H69.6851V33.6331C69.6675 33.4148 69.7284 33.1973 69.8568 33.0199C69.9124 32.9588 69.9808 32.9106 70.0571 32.8788C70.1334 32.847 70.2157 32.8324 70.2983 32.836C70.3789 32.8334 70.4592 32.8485 70.5333 32.8803C70.6075 32.9121 70.6738 32.9597 70.7275 33.0199C70.8516 33.199 70.9081 33.4163 70.8869 33.6331V34.7245H73.1188C73.3356 34.7033 73.5529 34.7598 73.732 34.8839C73.7931 34.9395 73.8413 35.0079 73.8731 35.0842C73.9048 35.1605 73.9195 35.2428 73.9159 35.3254C73.9185 35.406 73.9034 35.4863 73.8716 35.5604C73.8398 35.6346 73.7922 35.7008 73.732 35.7546C73.5546 35.883 73.3371 35.9439 73.1188 35.9263L70.8869 35.914Z" fill="white"/>
<path d="M77.7543 32.4312V34.9942C77.9933 34.8533 78.2486 34.7421 78.5146 34.6631C78.7697 34.5896 79.0339 34.5524 79.2994 34.5528C79.6775 34.5485 80.0527 34.6194 80.4031 34.7612C80.7309 34.8996 81.0119 35.1295 81.2125 35.4234C81.4339 35.7661 81.5452 36.1684 81.5313 36.5762V38.8326C81.7356 38.8134 81.9415 38.8428 82.1322 38.9184C82.2202 38.9721 82.2926 39.0479 82.3421 39.1383C82.3916 39.2287 82.4165 39.3304 82.4143 39.4335C82.4177 39.5142 82.403 39.5947 82.3711 39.669C82.3393 39.7433 82.2912 39.8095 82.2303 39.8627C82.0555 39.9964 81.836 40.0579 81.6172 40.0344H80.2069C79.9879 40.0605 79.7674 39.9988 79.5938 39.8627C79.5329 39.8095 79.4848 39.7433 79.453 39.669C79.4211 39.5947 79.4064 39.5142 79.4098 39.4335C79.405 39.33 79.4288 39.2272 79.4785 39.1364C79.5283 39.0455 79.6021 38.9701 79.6919 38.9184C79.8781 38.8419 80.0802 38.8125 80.2805 38.8326V36.613C80.2946 36.4941 80.2832 36.3736 80.2473 36.2595C80.2114 36.1453 80.1516 36.0401 80.072 35.9507C79.8399 35.7756 79.553 35.6887 79.2627 35.7055C79.016 35.6987 78.7715 35.7535 78.5514 35.8649C78.2428 36.0441 77.9619 36.2671 77.7175 36.5271V38.7835C77.9218 38.7613 78.1285 38.7909 78.3184 38.8694C78.4095 38.9205 78.4851 38.9954 78.5369 39.0861C78.5887 39.1769 78.6149 39.28 78.6127 39.3844C78.6166 39.4664 78.6008 39.5482 78.5667 39.6228C78.5325 39.6975 78.481 39.7629 78.4165 39.8136C78.2429 39.9497 78.0224 40.0115 77.8033 39.9853H76.528C76.3052 40.0108 76.0811 39.9493 75.9026 39.8136C75.8417 39.7604 75.7936 39.6942 75.7618 39.62C75.7299 39.5457 75.7152 39.4652 75.7186 39.3844C75.7164 39.2814 75.7413 39.1796 75.7908 39.0892C75.8403 38.9988 75.9127 38.923 76.0007 38.8694C76.1914 38.7937 76.3973 38.7643 76.6015 38.7835V33.584H76.3931C76.1748 33.6016 75.9573 33.5407 75.7799 33.4123C75.7188 33.3567 75.6706 33.2883 75.6388 33.212C75.6071 33.1357 75.5924 33.0534 75.596 32.9708C75.5934 32.8902 75.6085 32.8099 75.6403 32.7358C75.6721 32.6616 75.7197 32.5953 75.7799 32.5416C75.959 32.4175 76.1763 32.361 76.3931 32.3822L77.7543 32.4312Z" fill="white"/>
<path d="M89.8335 37.9867H84.9282C85.0615 38.3054 85.2994 38.5693 85.6027 38.7348C85.9788 38.9381 86.4015 39.0396 86.829 39.0291C87.4315 39.0042 88.0287 38.9054 88.6071 38.7348C88.8155 38.6768 89.0291 38.6398 89.2448 38.6244C89.3208 38.6214 89.3964 38.6352 89.4664 38.6649C89.5364 38.6946 89.5989 38.7394 89.6495 38.7961C89.7034 38.8534 89.7453 38.9208 89.7727 38.9945C89.8 39.0683 89.8124 39.1467 89.8089 39.2253C89.8079 39.2989 89.7922 39.3715 89.7627 39.4388C89.7332 39.5062 89.6906 39.5671 89.6372 39.6177C89.2877 39.8385 88.8944 39.9807 88.4845 40.0347C87.913 40.1638 87.329 40.2296 86.7431 40.2309C86.3236 40.2532 85.9038 40.1921 85.5081 40.051C85.1123 39.91 84.7485 39.6919 84.4377 39.4092C84.159 39.1569 83.9372 38.8482 83.7871 38.5035C83.637 38.1589 83.562 37.7862 83.567 37.4103C83.5544 37.0185 83.6319 36.6291 83.7935 36.2719C83.9551 35.9147 84.1964 35.5994 84.499 35.3501C85.0947 34.8261 85.8639 34.542 86.6573 34.553C87.1197 34.5472 87.5785 34.6348 88.0062 34.8106C88.3402 34.937 88.6479 35.1241 88.9137 35.3624C89.2101 35.6768 89.447 36.0425 89.6127 36.4415C89.7458 36.7685 89.8125 37.1187 89.8089 37.4717L89.8335 37.9867ZM88.4968 36.7604C88.3325 36.4403 88.0819 36.1727 87.7732 35.9878C87.4508 35.8098 87.0868 35.7209 86.7186 35.7303C86.3465 35.7205 85.9784 35.8093 85.6517 35.9878C85.3431 36.1727 85.0925 36.4403 84.9282 36.7604H88.4968Z" fill="white"/>
<path d="M102.428 35.914V38.8327H104.132C104.355 38.8132 104.576 38.8741 104.758 39.0044C104.818 39.0581 104.865 39.1244 104.897 39.1985C104.929 39.2727 104.944 39.3529 104.942 39.4336C104.945 39.5143 104.93 39.5948 104.898 39.6691C104.867 39.7434 104.818 39.8096 104.758 39.8628C104.579 39.9984 104.355 40.0599 104.132 40.0345H100.453C100.234 40.058 100.015 39.9965 99.8401 39.8628C99.7815 39.8077 99.7347 39.7412 99.7027 39.6674C99.6708 39.5936 99.6543 39.514 99.6543 39.4336C99.6543 39.3531 99.6708 39.2736 99.7027 39.1997C99.7347 39.1259 99.7815 39.0594 99.8401 39.0044C100.018 38.876 100.235 38.8151 100.453 38.8327H101.177V35.914H100.6C100.378 35.9335 100.156 35.8726 99.975 35.7424C99.9139 35.6868 99.8657 35.6184 99.8339 35.5421C99.8021 35.4658 99.7875 35.3834 99.7911 35.3009C99.7885 35.2202 99.8036 35.14 99.8354 35.0659C99.8672 34.9917 99.9148 34.9254 99.975 34.8717C100.158 34.7457 100.38 34.6892 100.6 34.7123H101.177V34.2463C101.173 33.9995 101.223 33.755 101.325 33.5302C101.427 33.3054 101.577 33.106 101.765 32.9464C102.249 32.5672 102.857 32.3834 103.47 32.4313C103.856 32.4329 104.241 32.4616 104.623 32.5172C104.922 32.5304 105.213 32.6189 105.469 32.7747C105.529 32.826 105.576 32.8901 105.608 32.9622C105.64 33.0344 105.655 33.1128 105.653 33.1916C105.656 33.3593 105.595 33.5219 105.481 33.6453C105.429 33.7002 105.366 33.7437 105.297 33.7732C105.227 33.8028 105.152 33.8177 105.076 33.817H104.745C104.31 33.7255 103.866 33.6762 103.421 33.6699C103.136 33.6454 102.85 33.7051 102.599 33.8416C102.531 33.893 102.475 33.9596 102.437 34.0362C102.399 34.1129 102.379 34.1974 102.379 34.2831V34.7491H104.23C104.447 34.7279 104.664 34.7844 104.843 34.9084C104.905 34.9641 104.953 35.0325 104.985 35.1087C105.016 35.185 105.031 35.2674 105.027 35.3499C105.03 35.4306 105.015 35.5108 104.983 35.585C104.951 35.6591 104.904 35.7254 104.843 35.7792C104.666 35.9076 104.449 35.9684 104.23 35.9508L102.428 35.914Z" fill="white"/>
<path d="M112.802 34.7125V38.8329C113.005 38.8195 113.206 38.8806 113.366 39.0046C113.424 39.0595 113.47 39.1262 113.499 39.2003C113.529 39.2744 113.542 39.3541 113.538 39.4338C113.542 39.5145 113.527 39.595 113.495 39.6693C113.463 39.7436 113.415 39.8098 113.354 39.863C113.181 39.9991 112.96 40.0608 112.741 40.0347H111.601V39.7649C111.28 39.9083 110.948 40.0232 110.607 40.1083C110.32 40.1886 110.023 40.2299 109.724 40.2309C109.365 40.2403 109.01 40.1557 108.694 39.9856C108.407 39.8176 108.17 39.5763 108.007 39.2866C107.877 39.0463 107.813 38.7752 107.823 38.5018V35.9142H107.615C107.397 35.9318 107.179 35.871 107.002 35.7426C106.941 35.687 106.893 35.6186 106.861 35.5423C106.829 35.466 106.814 35.3837 106.818 35.3011C106.815 35.2204 106.83 35.1402 106.862 35.0661C106.894 34.9919 106.942 34.9256 107.002 34.8719C107.181 34.7478 107.398 34.6913 107.615 34.7125H109.025V38.2933C109.018 38.3929 109.03 38.493 109.061 38.5878C109.093 38.6826 109.143 38.7701 109.209 38.8452C109.366 38.9779 109.568 39.044 109.773 39.0291C110.041 39.0246 110.307 38.9749 110.558 38.8819C110.921 38.7437 111.27 38.5712 111.601 38.3669V35.9142H111.159C110.941 35.9318 110.723 35.871 110.546 35.7426C110.485 35.687 110.437 35.6186 110.405 35.5423C110.373 35.466 110.358 35.3837 110.362 35.3011C110.359 35.2204 110.375 35.1402 110.406 35.0661C110.438 34.9919 110.486 34.9256 110.546 34.8719C110.725 34.7478 110.942 34.6913 111.159 34.7125H112.802Z" fill="white"/>
<path d="M117.757 35.914V38.3666C117.743 38.4589 117.75 38.5531 117.778 38.6422C117.806 38.7313 117.853 38.8132 117.916 38.8817C118.181 39.0414 118.491 39.1103 118.799 39.0779C119.39 39.0805 119.973 38.9462 120.504 38.6855C120.644 38.5959 120.804 38.5412 120.97 38.5261C121.046 38.5254 121.122 38.5416 121.192 38.5733C121.262 38.6051 121.324 38.6517 121.374 38.71C121.432 38.7649 121.478 38.8317 121.507 38.9058C121.537 38.9799 121.55 39.0595 121.546 39.1392C121.544 39.2156 121.527 39.2909 121.495 39.3604C121.464 39.43 121.418 39.4924 121.362 39.5439C121.022 39.791 120.633 39.9624 120.221 40.0467C119.76 40.1876 119.281 40.266 118.799 40.2797C118.198 40.3284 117.6 40.1537 117.119 39.7892C116.935 39.6439 116.787 39.457 116.689 39.2439C116.591 39.0307 116.545 38.7973 116.555 38.5628V35.9263H116.126C115.903 35.9458 115.681 35.8848 115.5 35.7546C115.439 35.699 115.391 35.6306 115.359 35.5543C115.327 35.478 115.313 35.3957 115.316 35.3131C115.314 35.2325 115.329 35.1523 115.361 35.0781C115.392 35.0039 115.44 34.9376 115.5 34.8839C115.683 34.758 115.905 34.7014 116.126 34.7245H116.555V33.6331C116.537 33.4148 116.598 33.1973 116.726 33.0199C116.78 32.9597 116.846 32.9121 116.921 32.8803C116.995 32.8485 117.075 32.8334 117.156 32.836C117.238 32.834 117.32 32.8494 117.396 32.8811C117.472 32.9128 117.541 32.9601 117.597 33.0199C117.721 33.199 117.778 33.4163 117.757 33.6331V34.7245H119.976C120.197 34.7014 120.419 34.758 120.602 34.8839C120.663 34.9395 120.711 35.0079 120.743 35.0842C120.774 35.1605 120.789 35.2428 120.786 35.3254C120.788 35.406 120.773 35.4863 120.741 35.5604C120.709 35.6346 120.662 35.7008 120.602 35.7546C120.42 35.8848 120.198 35.9458 119.976 35.9263L117.757 35.914Z" fill="white"/>
<path d="M128.425 34.7125V38.8329C128.624 38.8178 128.822 38.8792 128.977 39.0046C129.037 39.0583 129.085 39.1246 129.117 39.1987C129.149 39.2729 129.164 39.3531 129.161 39.4338C129.165 39.5145 129.15 39.595 129.118 39.6693C129.086 39.7436 129.038 39.8098 128.977 39.863C128.802 39.9967 128.583 40.0582 128.364 40.0347H127.211V39.7649C126.895 39.9081 126.567 40.023 126.23 40.1083C125.939 40.1894 125.638 40.2307 125.335 40.2309C124.98 40.2387 124.63 40.1542 124.317 39.9856C124.028 39.821 123.79 39.5789 123.63 39.2866C123.5 39.0463 123.436 38.7752 123.447 38.5018V35.9142H123.238C123.02 35.9318 122.802 35.871 122.625 35.7426C122.564 35.687 122.516 35.6186 122.484 35.5423C122.452 35.466 122.437 35.3837 122.441 35.3011C122.438 35.2204 122.453 35.1402 122.485 35.0661C122.517 34.9919 122.565 34.9256 122.625 34.8719C122.804 34.7478 123.021 34.6913 123.238 34.7125H124.648V38.2933C124.641 38.3929 124.653 38.493 124.684 38.5878C124.716 38.6826 124.766 38.7701 124.832 38.8452C124.909 38.9121 124.999 38.9628 125.096 38.9944C125.193 39.026 125.295 39.0378 125.396 39.0291C125.664 39.0246 125.93 38.9749 126.181 38.8819C126.541 38.7455 126.886 38.5729 127.211 38.3669V35.9142H126.807C126.588 35.9318 126.371 35.871 126.193 35.7426C126.132 35.687 126.084 35.6186 126.052 35.5423C126.021 35.466 126.006 35.3837 126.01 35.3011C126.007 35.2204 126.022 35.1402 126.054 35.0661C126.086 34.9919 126.133 34.9256 126.193 34.8719C126.373 34.7478 126.59 34.6913 126.807 34.7125H128.425Z" fill="white"/>
<path d="M133.429 34.7124V35.4604C133.809 35.1732 134.22 34.9304 134.655 34.7369C134.914 34.6216 135.194 34.5591 135.477 34.553C135.894 34.5642 136.296 34.7154 136.617 34.9822C136.721 35.0475 136.808 35.1356 136.871 35.2398C136.935 35.344 136.974 35.4614 136.985 35.5831C136.989 35.6645 136.975 35.7458 136.946 35.8218C136.916 35.8978 136.871 35.9669 136.814 36.0245C136.697 36.1334 136.544 36.1947 136.384 36.1962C136.204 36.182 136.034 36.1037 135.906 35.9755C135.791 35.8498 135.634 35.7711 135.465 35.7547C135.192 35.7935 134.934 35.9035 134.717 36.0736C134.289 36.3634 133.88 36.6787 133.49 37.0178V38.8328H135.207C135.425 38.8152 135.643 38.8761 135.82 39.0045C135.88 39.0583 135.928 39.1245 135.96 39.1987C135.992 39.2728 136.007 39.3531 136.004 39.4337C136.008 39.5144 135.993 39.5949 135.961 39.6692C135.929 39.7435 135.881 39.8097 135.82 39.8629C135.646 39.9966 135.426 40.0581 135.207 40.0346H131.528C131.309 40.0581 131.09 39.9966 130.915 39.8629C130.856 39.8079 130.81 39.7414 130.778 39.6676C130.746 39.5937 130.729 39.5141 130.729 39.4337C130.729 39.3532 130.746 39.2737 130.778 39.1999C130.81 39.126 130.856 39.0596 130.915 39.0045C131.092 38.8761 131.31 38.8152 131.528 38.8328H132.252V35.9142H131.81C131.592 35.9318 131.375 35.8709 131.197 35.7425C131.136 35.6869 131.088 35.6185 131.056 35.5422C131.024 35.4659 131.01 35.3836 131.013 35.301C131.011 35.2204 131.026 35.1401 131.057 35.066C131.089 34.9918 131.137 34.9255 131.197 34.8718C131.376 34.7477 131.593 34.6913 131.81 34.7124H133.429Z" fill="white"/>
<path d="M144.503 37.9865H139.597C139.726 38.3044 139.96 38.5685 140.259 38.7346C140.643 38.9571 141.079 39.0715 141.523 39.0657C142.125 39.0401 142.722 38.9413 143.301 38.7714C143.505 38.7147 143.715 38.6777 143.926 38.661C144.002 38.658 144.078 38.6719 144.148 38.7015C144.218 38.7312 144.28 38.776 144.331 38.8327C144.387 38.889 144.431 38.956 144.461 39.0297C144.49 39.1035 144.504 39.1825 144.503 39.2619C144.502 39.3368 144.486 39.4107 144.454 39.4784C144.422 39.5462 144.376 39.6062 144.319 39.6544C143.975 39.8782 143.585 40.0208 143.178 40.0713C142.607 40.2004 142.023 40.2662 141.437 40.2675C140.586 40.3118 139.752 40.0163 139.119 39.4459C138.842 39.1929 138.622 38.8838 138.474 38.5391C138.326 38.1944 138.253 37.822 138.261 37.447C138.248 37.0552 138.326 36.6657 138.487 36.3085C138.649 35.9514 138.89 35.636 139.193 35.3868C139.788 34.8627 140.558 34.5787 141.351 34.5897C141.813 34.5851 142.272 34.6727 142.7 34.8472C143.034 34.9736 143.341 35.1607 143.607 35.399C143.904 35.7135 144.141 36.0791 144.306 36.4782C144.435 36.806 144.498 37.1561 144.49 37.5083L144.503 37.9865ZM143.178 36.7602C143.014 36.4402 142.763 36.1725 142.455 35.9876C142.126 35.8188 141.763 35.7307 141.394 35.7307C141.025 35.7307 140.661 35.8188 140.333 35.9876C140.024 36.1725 139.774 36.4402 139.61 36.7602H143.178Z" fill="white"/>
</svg>
