<svg width="22" height="22" viewBox="0 0 22 22" fill="none" xmlns="http://www.w3.org/2000/svg">
<path fill-rule="evenodd" clip-rule="evenodd" d="M15.1859 6.07974C15.1859 7.11242 14.7756 8.1028 14.0454 8.83301C13.3152 9.56322 12.3248 9.97345 11.2921 9.97345C10.2595 9.97345 9.26909 9.56322 8.53888 8.83301C7.80867 8.1028 7.39844 7.11242 7.39844 6.07974C7.39844 5.04707 7.80867 4.05669 8.53888 3.32648C9.26909 2.59626 10.2595 2.18604 11.2921 2.18604C12.3248 2.18604 13.3152 2.59626 14.0454 3.32648C14.7756 4.05669 15.1859 5.04707 15.1859 6.07974ZM13.239 6.07974C13.239 6.59608 13.0339 7.09127 12.6688 7.45637C12.3037 7.82148 11.8085 8.02659 11.2921 8.02659C10.7758 8.02659 10.2806 7.82148 9.91551 7.45637C9.55041 7.09127 9.34529 6.59608 9.34529 6.07974C9.34529 5.5634 9.55041 5.06821 9.91551 4.70311C10.2806 4.338 10.7758 4.13289 11.2921 4.13289C11.8085 4.13289 12.3037 4.338 12.6688 4.70311C13.0339 5.06821 13.239 5.5634 13.239 6.07974Z" fill="white"/>
<path fill-rule="evenodd" clip-rule="evenodd" d="M11.2922 0C5.3786 0 0.584473 4.79413 0.584473 10.7077C0.584473 16.6213 5.3786 21.4154 11.2922 21.4154C17.2057 21.4154 21.9999 16.6213 21.9999 10.7077C21.9999 4.79413 17.2057 0 11.2922 0ZM2.53133 10.7077C2.53133 12.7422 3.22538 14.615 4.38862 16.1024C5.20555 15.0296 6.25945 14.1602 7.46799 13.5621C8.67653 12.964 10.007 12.6534 11.3554 12.6545C12.6864 12.6533 14.0002 12.9558 15.1965 13.5392C16.3929 14.1225 17.4403 14.9712 18.259 16.0207C19.1024 14.9145 19.6703 13.6233 19.9156 12.2541C20.161 10.8848 20.0768 9.47683 19.67 8.14659C19.2631 6.81636 18.5454 5.60212 17.5761 4.60434C16.6068 3.60657 15.4139 2.85395 14.096 2.40875C12.7781 1.96356 11.3732 1.83858 9.99737 2.04417C8.62159 2.24976 7.31454 2.78 6.18437 3.59102C5.0542 4.40204 4.1334 5.47053 3.49816 6.70807C2.86292 7.94561 2.5315 9.31664 2.53133 10.7077ZM11.2922 19.4685C9.28102 19.4716 7.33058 18.7797 5.77089 17.51C6.39868 16.6113 7.23428 15.8775 8.20659 15.3711C9.1789 14.8647 10.2592 14.6006 11.3554 14.6014C12.438 14.6005 13.5052 14.858 14.4684 15.3523C15.4315 15.8467 16.2628 16.5637 16.8933 17.4438C15.3215 18.7547 13.3389 19.4714 11.2922 19.4685Z" fill="white"/>
</svg>
