<svg width="32" height="23" viewBox="0 0 32 23" fill="none" xmlns="http://www.w3.org/2000/svg">
<mask id="mask0_26_549" style="mask-type:alpha" maskUnits="userSpaceOnUse" x="0" y="0" width="21" height="21">
<circle cx="10.0143" cy="10.0143" r="10.0143" fill="#2B2523"/>
</mask>
<g mask="url(#mask0_26_549)">
<path d="M0 0L0.312946 0.860603L0 1.76032V2.66004L1.25179 4.77243L0 6.88482V8.13661L1.25179 10.0143L0 11.892V13.1438L1.25179 15.2561L0 17.3685V20.0286L0.860603 19.7156L1.76032 20.0286H2.66004L4.77243 18.7768L6.88482 20.0286H8.13661L10.0143 18.7768L11.892 20.0286H13.1438L15.2561 18.7768L17.3685 20.0286H20.0286L19.7156 19.168L20.0286 18.2682V17.3685L18.7768 15.2561L20.0286 13.1438V11.892L18.7768 10.0143L20.0286 8.13661V6.88482L18.7768 4.77243L20.0286 2.66004V0L19.168 0.312946L18.2682 0H17.3685L15.2561 1.25179L13.1438 0H11.892L10.0143 1.25179L8.13661 0H6.88482L4.77243 1.25179L2.66004 0H0Z" fill="#2B2523"/>
<path d="M13.1438 0V4.22478L17.3685 0H13.1438ZM20.0286 2.66004L15.8038 6.88482H20.0286V2.66004ZM0 6.88482H4.22478L0 2.66004V6.88482ZM2.66004 0L6.88482 4.22478V0H2.66004ZM6.88482 20.0286V15.8038L2.66004 20.0286H6.88482ZM0 17.3685L4.22478 13.1438H0V17.3685ZM20.0286 13.1438H15.8038L20.0286 17.3685V13.1438ZM17.3685 20.0286L13.1438 15.8038V20.0286H17.3685Z" fill="white"/>
<path d="M0 0V1.76032L5.1245 6.88482H6.88482L0 0ZM8.13661 0V8.13661H0V11.892H8.13661V20.0286H11.892V11.892H20.0286V8.13661H11.892V0H8.13661ZM18.2682 0L13.1438 5.1245V6.88482L20.0286 0H18.2682ZM6.88482 13.1438L0 20.0286H1.76032L6.88482 14.9041V13.1438ZM13.1438 13.1438L20.0286 20.0286V18.2682L14.9041 13.1438H13.1438Z" fill="white"/>
</g>
<path d="M14.3166 21C14.1055 21 14 20.878 14 20.6339V14.3661C14 14.122 14.1055 14 14.3166 14H18.1974C18.4235 14 18.5366 14.1058 18.5366 14.3173V14.8933C18.5366 15.1048 18.4235 15.2106 18.1974 15.2106H15.3207V16.7629H17.9576C18.1838 16.7629 18.2969 16.8687 18.2969 17.0802V17.6562C18.2969 17.8677 18.1838 17.9735 17.9576 17.9735H15.3207V19.7894H18.3421C18.5683 19.7894 18.6813 19.8952 18.6813 20.1067V20.6827C18.6813 20.8942 18.5683 21 18.3421 21H14.3166Z" fill="white"/>
<path d="M20.1061 21C19.895 21 19.7895 20.878 19.7895 20.6339V14.3661C19.7895 14.122 19.895 14 20.1061 14H20.7755C21.0348 14 21.2308 14.1139 21.3635 14.3417L23.6702 18.3396H23.7019C23.6868 18.1444 23.6793 17.9491 23.6793 17.7538V14.3661C23.6793 14.122 23.7848 14 23.9959 14H24.6834C24.8945 14 25 14.122 25 14.3661V20.6339C25 20.878 24.8945 21 24.6834 21H24.0592C23.7999 21 23.6039 20.8861 23.4712 20.6583L21.1192 16.5872H21.0876C21.1027 16.7824 21.1102 16.9777 21.1102 17.1729V20.6339C21.1102 20.878 21.0047 21 20.7936 21H20.1061Z" fill="white"/>
<path fill-rule="evenodd" clip-rule="evenodd" d="M14.2677 14.0519C14.0546 14.0519 13.9481 14.1721 13.9481 14.4126V20.5874C13.9481 20.8279 14.0546 20.9481 14.2677 20.9481H18.3312C18.5595 20.9481 18.6736 20.8439 18.6736 20.6355V20.0681C18.6736 20.0083 18.6642 19.9572 18.6455 19.9146C18.5988 19.8085 18.494 19.7555 18.3312 19.7555H15.2812V17.9665H17.9431C18.1524 17.9665 18.2658 17.8788 18.2832 17.7036C18.2847 17.6877 18.2855 17.6712 18.2855 17.6539V17.0864C18.2855 16.9736 18.252 16.8912 18.1851 16.8395C18.1284 16.7957 18.0477 16.7738 17.9431 16.7738H15.2812V15.2445H18.1851C18.4134 15.2445 18.5275 15.1403 18.5275 14.9319V14.3645C18.5275 14.1561 18.4134 14.0519 18.1851 14.0519H14.2677ZM19.7922 20.5874C19.7922 20.604 19.7927 20.6201 19.7937 20.6355C19.8074 20.8439 19.9135 20.9481 20.1118 20.9481H20.8058C21.0189 20.9481 21.1254 20.8279 21.1254 20.5874V17.1778C21.1254 16.9921 21.1183 16.8064 21.1041 16.6207C21.1036 16.614 21.1031 16.6074 21.1026 16.6007H21.1345L23.5087 20.6115C23.6427 20.8359 23.8405 20.9481 24.1023 20.9481H24.7323C24.9454 20.9481 25.0519 20.8279 25.0519 20.5874V14.4126C25.0519 14.1721 24.9454 14.0519 24.7323 14.0519H24.0384C23.8253 14.0519 23.7188 14.1721 23.7188 14.4126V17.7501C23.7188 17.9358 23.7258 18.1215 23.74 18.3072C23.7405 18.3139 23.7411 18.3205 23.7416 18.3272H23.7096L21.3811 14.3885C21.2472 14.1641 21.0493 14.0519 20.7875 14.0519H20.1118C19.9135 14.0519 19.8074 14.1561 19.7937 14.3645C19.7927 14.3799 19.7922 14.396 19.7922 14.4126V20.5874ZM19.1595 12.2078C18.7809 12.0333 18.4209 12 18.1851 12H14.2677C13.8251 12 13.1448 12.1315 12.6038 12.742C12.0865 13.3258 12 14.0099 12 14.4126V20.5874C12 20.9901 12.0865 21.6742 12.6038 22.258C13.1448 22.8685 13.8251 23 14.2677 23H18.3312C18.5517 23 18.8808 22.9709 19.2322 22.8244C19.5554 22.9605 19.8693 23 20.1118 23H20.8058C21.2258 23 21.8599 22.8815 22.3858 22.3478C22.8643 22.7776 23.4676 23 24.1023 23H24.7323C25.1749 23 25.8552 22.8685 26.3962 22.258C26.9135 21.6742 27 20.9901 27 20.5874V14.4126C27 14.0099 26.9135 13.3258 26.3962 12.742C25.8552 12.1315 25.1749 12 24.7323 12H24.0384C23.6241 12 23.0015 12.1153 22.4798 12.6307C22.0053 12.215 21.4115 12 20.7875 12H20.1118C19.8512 12 19.5081 12.0456 19.1595 12.2078Z" fill="#2B2523"/>
<path d="M29.7065 11.5551C29.5029 11.8817 29.0115 11.8817 28.808 11.5551L26.5898 7.99311C26.3802 7.65667 26.6317 7.22862 27.039 7.22862L31.4754 7.22862C31.8825 7.22862 32.1339 7.65667 31.9246 7.99311L29.7065 11.5551Z" fill="white"/>
</svg>
