<svg width="31" height="31" viewBox="0 0 31 31" fill="none" xmlns="http://www.w3.org/2000/svg">
<path d="M29.76 0.671875H1.24C0.554125 0.671875 0 1.20812 0 1.87188V29.4719C0 30.1356 0.554125 30.6719 1.24 30.6719H29.76C30.4459 30.6719 31 30.1356 31 29.4719V1.87188C31 1.20812 30.4459 0.671875 29.76 0.671875ZM23.8429 11.5356C23.8545 11.7119 23.8545 11.8956 23.8545 12.0756C23.8545 17.5806 19.5223 23.9219 11.6056 23.9219C9.16438 23.9219 6.90137 23.2356 4.99487 22.0544C5.34362 22.0919 5.67688 22.1069 6.03338 22.1069C8.04838 22.1069 9.90063 21.4469 11.377 20.3294C9.486 20.2919 7.89725 19.0919 7.35475 17.4419C8.01737 17.5356 8.61413 17.5356 9.29612 17.3669C8.32244 17.1754 7.44727 16.6637 6.81929 15.9186C6.19131 15.1734 5.84926 14.2409 5.85125 13.2794V13.2269C6.42088 13.5381 7.09125 13.7294 7.79263 13.7556C7.20301 13.3754 6.71947 12.8602 6.38488 12.2557C6.05029 11.6513 5.87498 10.9763 5.8745 10.2906C5.8745 9.51438 6.08375 8.80562 6.45963 8.19063C7.54037 9.47814 8.88898 10.5312 10.4178 11.2812C11.9466 12.0313 13.6214 12.4617 15.3334 12.5444C14.725 9.71313 16.9105 7.42188 19.5378 7.42188C20.7778 7.42188 21.8937 7.92438 22.6804 8.73438C23.653 8.55813 24.583 8.20563 25.4123 7.73312C25.0906 8.69687 24.4164 9.51062 23.5212 10.0244C24.3892 9.93437 25.2262 9.70188 26.0012 9.37563C25.4161 10.2081 24.6838 10.9469 23.8429 11.5356Z" fill="white"/>
</svg>
